<svg id="图层_1" data-name="图层 1" xmlns="http://www.w3.org/2000/svg" viewBox="0 0 289.74 199.56"><defs><style>.cls-1{fill:#e916ef;}.cls-2{opacity:0.8;}.cls-3{fill:#0ca2ed;}.cls-4{fill:#e88b10;}</style></defs><path class="cls-1" d="M-551.89,77.07c18.16,4.79,28.63,21.5,25.39,38.46-3.52,18.5-24.28,27.75-43.21,20.75-14.87-5.57-23.7-18.79-21.54-33.52A31.34,31.34,0,0,1-551.89,77.07Zm-10.94,49.17c12.49,3,23.85-4.26,24.85-16.43.73-8.85-6.13-18.84-15.13-21.54-11.55-3.5-23.21,3.31-25.53,14.34C-580.9,113.36-573.83,123.62-562.83,126.24Z" transform="translate(815.66 50.3)"/><path class="cls-1" d="M-698,62.53c18-1,29.06,11.43,26.35,29-1.56,10.14-4.06,20.16-6.29,30.23-.82,3.69-8.62,6.22-11.65,3.92-1.81-1.38-.75-3.4-.4-5.08,1.65-8,3.65-16,5.12-24,1.08-5.88,2-11.92-2.45-17-4.94-5.57-11.31-6.72-18.27-4.29-10.16,3.55-17,10.78-19.42,21.42-2.14,9.45-4,18.94-6.08,28.43-.91,4.19-8.4,7.66-11.64,5.52-1.28-.86-.89-2.25-.61-3.57,2.22-10.54,4.13-21.12,6.79-31.58C-732.24,78.42-715.16,63.48-698,62.53Z" transform="translate(815.66 50.3)"/><path class="cls-1" d="M-613.26,76.8c-4.36-.54-8.73-1.1-13.09-1.42A23.66,23.66,0,0,0-651.67,94c-2.5,10.67,4.54,19.79,15.73,20.89,3.53.35,7.06.67,10.59.93,3,.22,3.68,1.69,3.37,4.37-.87,7.24-1.66,8-9,7.26-4.36-.44-8.75-1-13.07-1.78-12.49-2.4-21.73-14-20.85-26.65,1.33-19.25,18.83-35.85,38.31-35.31,9.74.24,19.44,1.67,29.11,3.15,2.06.31,5.65.12,5,3.64-.62,3.33.85,9-5.22,8.33-5.16-.52-10.36-1.49-15.55-2.13Z" transform="translate(815.66 50.3)"/><path class="cls-1" d="M-758.52,70c5.31-1,10.65-1.84,16-2.79,3-.52,3.7.63,3.33,3.44-1,7.2-1.46,7.73-8.81,9-8.34,1.41-16.65,2.91-24.91,5-11.94,2.93-21.42,13.16-24.3,25.67-2.2,9.6-3.92,19.2-5.87,28.82-1.13,5.57-6.26,9.56-11.08,8.87-1.55-.22-1.66-1.31-1.34-2.81,2.68-12.78,4-25.49,8.34-38.29,5.47-16.1,21.13-31,36.71-34.39Q-764.5,71.16-758.52,70Z" transform="translate(815.66 50.3)"/><path class="cls-1" d="M-611.53,129.48c-4.84.21-6-2-4.88-6.23,1.34-5.14,2.27-10.42,3.61-15.54.89-3.39.44-5.27-3.86-5.44s-8.38-1-12.57-1.21c-3.06-.18-3.69-1.64-3.31-4.3,1-6.73,1.65-7.4,8.45-6.75,7.39.73,14.76,1.72,22.11,2.74,3.38.48,4.43,2,3.7,5.19-2.11,9-4.25,18.08-6,27.26C-605.12,129.46-607.33,130.73-611.53,129.48Z" transform="translate(815.66 50.3)"/><path class="cls-1" d="M-704.7,94c5.74-.38,6.1,0,4.91,5.68-1.63,7.71-3.26,15.42-5,23.13-.87,3.8-8.47,6.69-11.47,4.57-1.18-.84-.77-2-.54-3.13,1.79-8.76,3.63-17.51,5.39-26.25C-710.61,94-707.53,94.24-704.7,94Z" transform="translate(815.66 50.3)"/><path class="cls-1" d="M-762.56,108.32c-4.32.86-8.63,1.69-12.92,2.8-3,.79-3.6-.45-3.23-3.24,1-7.35,1.41-8,8.65-9.57,6.79-1.48,13.6-2.86,20.43-3.9,1.93-.3,4.67-1.7,5,1.66.4,4-2.15,9.19-5,9.78-4.33.9-8.66,1.58-13,2.44Z" transform="translate(815.66 50.3)"/><g class="cls-2"><path class="cls-3" d="M-661.36-43.1c18.57,13.15,27.86,31.55,33.9,53.59,2.25-3.72,3.73-5.82,4.85-8.1,1.64-3.34,3.29-3,5.54-.56,5.52,6,11.14,11.86,16.75,17.75a8.08,8.08,0,0,1,2,5.94q0,27.86,0,55.69a8.56,8.56,0,0,1-2.23,6.38c-5.28,5.52-10.47,11.11-15.75,16.64-.87.91-1.75,2.59-3.1,2.08-1.74-.65-1-2.61-1-4,0-17.9,0-35.81,0-53.71,0-2.07.38-4.26-1-6.6-2.88,2.65-3.59,6.16-5.4,9-.42.66-1,1.58-1.61,1.71-1.27.24-1.48-1.08-1.83-1.94-2.4-5.93-4.75-11.88-7.3-18.27-2.44,2.15-1.76,4.24-1.77,6-.05,27.35-.14,54.7.06,82.05,0,5.16-1.2,9.4-4.82,13-4.69,4.71-9.3,9.5-14,14.23-.66.68-1.31,1.75-2.44,1.29s-.78-1.69-.85-2.64,0-1.65,0-2.48V-43.1Z" transform="translate(815.66 50.3)"/><path class="cls-4" d="M-703.59,2.14c-4.95,4.81-10.25,9.29-14.7,14.5-3.28,3.86-3.89,8.88-3.37,14.11.44,4.38,2.31,6.2,6.6,6.16,9.49-.1,19,.15,28.46-.23,4.45-.18,6.5.83,6.41,5.61-.3,15.29,1.78,13.45-13.58,13.57-6.66,0-13.32,0-20,0-7.51,0-7.64.13-7.65,7.4,0,9.94,0,19.89,0,29.83,0,1.74.58,3.63-.92,5.49-3.35-2-5.55-5.11-8.17-7.75-.94-.94-1.55-2.26-2.6-3-9.29-6.6-11.15-15.65-10.52-26.5.82-14.2.23-28.49.18-42.74,0-2.93.53-5.42,2.7-7.68q28.1-29.28,56.06-58.71c1-1,1.91-3,3.43-2.4,1.83.73,1,2.92,1,4.47q.07,27.59,0,55.18c0,6.28-.51,6.84-6.88,6.66-4.47-.13-9.53,1.59-13.25-.76-4.17-2.64-1-8-2.16-12.07C-702.63,3-703,2.82-703.59,2.14Z" transform="translate(815.66 50.3)"/><path class="cls-3" d="M-583.66,37.35c.56.49,1.22,1,1.79,1.57,3.85,3.87,7.66,7.78,11.53,11.64,1.81,1.8,2.24,3.55.27,5.53-4.08,4.11-8.1,8.28-12.19,12.38-.55.54-1.46,1.22-2,1.1-1.21-.25-1-1.54-1-2.48,0-9.08,0-18.16,0-27.24C-585.31,38.84-585.66,37.38-583.66,37.35Z" transform="translate(815.66 50.3)"/><path class="cls-4" d="M-756.27,46c0,4.46,0,8.92,0,13.38,0,.79.12,1.75-.77,2.18s-1.55-.34-2.09-.91q-6.32-6.66-12.59-13.37c-1.37-1.44-1.46-2.92,0-4.36,4.18-4.24,8.36-8.5,12.61-12.67,2-2,2.86-.88,2.88,1.38C-756.23,36.41-756.27,41.2-756.27,46Z" transform="translate(815.66 50.3)"/></g></svg>